# MagicaVoxel @ Ephtracy

# group
o 

# material
mtllib Stone.mtl
usemtl palette

# normals
vn -1 0 0
vn 1 0 0
vn 0 0 1
vn 0 0 -1
vn 0 -1 0
vn 0 1 0

# texcoords
vt 0.970703 0.5
vt 0.974609 0.5
vt 0.978516 0.5
vt 0.982422 0.5

# verts
v -0.5 0 0.5
v -0.5 0 -0.2
v -0.5 0 -0.5
v -0.5 0.1 0.1
v -0.5 0.1 -0.1
v -0.5 0.1 -0.2
v -0.5 0.1 -0.5
v -0.5 0.2 0.3
v -0.5 0.2 0.1
v -0.5 0.2 0
v -0.5 0.2 -0.1
v -0.5 0.3 0.5
v -0.5 0.3 0.4
v -0.5 0.3 0.3
v -0.5 0.3 0
v -0.5 0.3 -0.2
v -0.5 0.3 -0.4
v -0.5 0.4 0.5
v -0.5 0.4 0.4
v -0.5 0.4 0.2
v -0.5 0.4 0
v -0.5 0.4 -0.2
v -0.5 0.4 -0.4
v -0.5 0.5 0.3
v -0.5 0.5 0.2
v -0.5 0.5 0
v -0.5 0.5 -0.2
v -0.5 0.6 0.2
v -0.5 0.6 0
v -0.5 0.6 -0.1
v -0.5 0.6 -0.2
v -0.5 0.6 -0.4
v -0.5 0.7 0.4
v -0.5 0.7 0.2
v -0.5 0.7 -0.1
v -0.5 0.7 -0.2
v -0.5 0.7 -0.4
v -0.5 0.8 0.4
v -0.5 0.8 0.2
v -0.5 0.8 0.1
v -0.5 0.8 -0.1
v -0.5 0.8 -0.2
v -0.5 0.8 -0.4
v -0.5 0.9 0.1
v -0.5 0.9 0
v -0.5 0.9 -0.1
v -0.5 0.9 -0.2
v -0.5 0.9 -0.4
v -0.5 1 0.5
v -0.5 1 0.1
v -0.5 1 0
v -0.5 1 -0.5
v 0.5 0 0.5
v 0.5 0 -0.5
v 0.5 0.1 0.5
v 0.5 0.1 0.4
v 0.5 0.1 0.1
v 0.5 0.1 -0.1
v 0.5 0.1 -0.2
v 0.5 0.1 -0.3
v 0.5 0.2 0.5
v 0.5 0.2 0.4
v 0.5 0.2 0.2
v 0.5 0.2 0.1
v 0.5 0.2 -0.1
v 0.5 0.2 -0.2
v 0.5 0.2 -0.3
v 0.5 0.2 -0.4
v 0.5 0.3 0.4
v 0.5 0.3 0.2
v 0.5 0.3 -0.2
v 0.5 0.3 -0.4
v 0.5 0.3 -0.5
v 0.5 0.4 0.2
v 0.5 0.4 -0.1
v 0.5 0.4 -0.3
v 0.5 0.4 -0.4
v 0.5 0.4 -0.5
v 0.5 0.5 0.3
v 0.5 0.5 0.2
v 0.5 0.5 0.1
v 0.5 0.5 0
v 0.5 0.5 -0.1
v 0.5 0.5 -0.3
v 0.5 0.5 -0.4
v 0.5 0.6 0.5
v 0.5 0.6 0.3
v 0.5 0.6 0.2
v 0.5 0.6 0.1
v 0.5 0.6 0
v 0.5 0.6 -0.3
v 0.5 0.7 0.5
v 0.5 0.7 0.3
v 0.5 0.7 0.2
v 0.5 0.7 0.1
v 0.5 0.7 -0.2
v 0.5 0.7 -0.4
v 0.5 0.8 0.5
v 0.5 0.8 0.4
v 0.5 0.8 0.3
v 0.5 0.8 0.1
v 0.5 0.8 -0.1
v 0.5 0.8 -0.2
v 0.5 0.8 -0.3
v 0.5 0.8 -0.4
v 0.5 0.9 0.5
v 0.5 0.9 0.4
v 0.5 0.9 -0.1
v 0.5 0.9 -0.3
v 0.5 0.9 -0.4
v 0.5 0.9 -0.5
v 0.5 1 0.5
v 0.5 1 -0.4
v 0.5 1 -0.5
v -0.5 0 0.5
v -0.5 0.3 0.5
v -0.5 0.4 0.5
v -0.5 1 0.5
v -0.4 0.4 0.5
v -0.4 0.5 0.5
v -0.4 0.7 0.5
v -0.4 0.8 0.5
v -0.3 0.2 0.5
v -0.3 0.3 0.5
v -0.2 0.3 0.5
v -0.2 0.4 0.5
v -0.2 0.5 0.5
v -0.2 0.6 0.5
v -0.2 0.7 0.5
v -0.1 0.1 0.5
v -0.1 0.2 0.5
v -0.1 0.7 0.5
v -0.1 0.8 0.5
v 0 0.2 0.5
v 0 0.3 0.5
v 0 0.5 0.5
v 0 0.6 0.5
v 0 0.7 0.5
v 0.1 0.1 0.5
v 0.1 0.2 0.5
v 0.2 0.1 0.5
v 0.2 0.2 0.5
v 0.2 0.4 0.5
v 0.2 0.5 0.5
v 0.2 0.8 0.5
v 0.2 0.9 0.5
v 0.3 0.5 0.5
v 0.3 0.6 0.5
v 0.3 0.7 0.5
v 0.4 0.4 0.5
v 0.4 0.5 0.5
v 0.5 0 0.5
v 0.5 0.1 0.5
v 0.5 0.2 0.5
v 0.5 0.6 0.5
v 0.5 0.7 0.5
v 0.5 0.8 0.5
v 0.5 0.9 0.5
v 0.5 1 0.5
v -0.5 0 -0.5
v -0.5 0.1 -0.5
v -0.5 1 -0.5
v -0.4 0 -0.5
v -0.4 0.1 -0.5
v -0.4 0.3 -0.5
v -0.4 0.4 -0.5
v -0.4 0.8 -0.5
v -0.4 0.9 -0.5
v -0.3 0.1 -0.5
v -0.3 0.2 -0.5
v -0.3 0.5 -0.5
v -0.3 0.6 -0.5
v -0.3 0.7 -0.5
v -0.3 0.8 -0.5
v -0.2 0.3 -0.5
v -0.2 0.4 -0.5
v -0.2 0.7 -0.5
v -0.2 0.8 -0.5
v -0.2 0.9 -0.5
v -0.1 0.1 -0.5
v -0.1 0.2 -0.5
v -0.1 0.3 -0.5
v -0.1 0.4 -0.5
v -0.1 0.5 -0.5
v -0.1 0.6 -0.5
v -0.1 0.7 -0.5
v -0.1 0.8 -0.5
v -0.1 0.9 -0.5
v 0 0.5 -0.5
v 0 0.6 -0.5
v 0.1 0 -0.5
v 0.1 0.1 -0.5
v 0.1 0.2 -0.5
v 0.1 0.3 -0.5
v 0.1 0.6 -0.5
v 0.1 0.7 -0.5
v 0.1 0.8 -0.5
v 0.2 0 -0.5
v 0.2 0.1 -0.5
v 0.2 0.2 -0.5
v 0.2 0.3 -0.5
v 0.2 0.4 -0.5
v 0.2 0.5 -0.5
v 0.2 0.6 -0.5
v 0.2 0.7 -0.5
v 0.3 0.7 -0.5
v 0.3 0.8 -0.5
v 0.3 0.9 -0.5
v 0.3 1 -0.5
v 0.4 0.2 -0.5
v 0.4 0.3 -0.5
v 0.4 0.4 -0.5
v 0.4 0.6 -0.5
v 0.4 0.7 -0.5
v 0.5 0 -0.5
v 0.5 0.3 -0.5
v 0.5 0.4 -0.5
v 0.5 0.9 -0.5
v 0.5 1 -0.5
v -0.5 0 0.5
v 0.5 0 0.5
v -0.3 0 0.4
v -0.1 0 0.4
v 0.1 0 0.4
v 0.2 0 0.4
v -0.4 0 0.3
v -0.3 0 0.3
v -0.2 0 0.3
v 0.2 0 0.3
v 0.3 0 0.3
v -0.2 0 0.2
v -0.1 0 0.2
v 0 0 0.2
v 0.1 0 0.2
v 0.2 0 0.2
v -0.4 0 0.1
v -0.3 0 0.1
v -0.2 0 0.1
v 0 0 0.1
v 0.1 0 0.1
v 0.2 0 0.1
v 0.3 0 0.1
v -0.1 0 0
v 0 0 0
v 0.1 0 -0.1
v 0.2 0 -0.1
v 0.3 0 -0.1
v 0.4 0 -0.1
v -0.5 0 -0.2
v -0.4 0 -0.2
v -0.3 0 -0.2
v -0.2 0 -0.2
v -0.1 0 -0.2
v 0 0 -0.2
v 0.1 0 -0.2
v -0.4 0 -0.3
v -0.3 0 -0.3
v 0.1 0 -0.3
v 0.2 0 -0.3
v 0.3 0 -0.3
v 0.4 0 -0.3
v -0.4 0 -0.4
v -0.3 0 -0.4
v -0.2 0 -0.4
v -0.1 0 -0.4
v -0.5 0 -0.5
v -0.4 0 -0.5
v 0.1 0 -0.5
v 0.2 0 -0.5
v 0.5 0 -0.5
v -0.5 1 0.5
v 0.5 1 0.5
v -0.3 1 0.4
v -0.1 1 0.4
v 0.2 1 0.4
v 0.4 1 0.4
v -0.4 1 0.3
v -0.3 1 0.3
v -0.2 1 0.3
v -0.1 1 0.3
v 0 1 0.3
v 0.2 1 0.3
v 0.4 1 0.3
v -0.4 1 0.2
v -0.2 1 0.2
v 0 1 0.2
v 0.2 1 0.2
v 0.3 1 0.2
v -0.5 1 0.1
v -0.3 1 0.1
v 0 1 0.1
v 0.1 1 0.1
v 0.3 1 0.1
v -0.5 1 0
v -0.4 1 0
v -0.3 1 0
v -0.2 1 0
v 0 1 0
v 0.1 1 0
v -0.4 1 -0.1
v -0.2 1 -0.1
v -0.1 1 -0.1
v 0.1 1 -0.1
v 0.2 1 -0.1
v 0.4 1 -0.1
v -0.1 1 -0.2
v 0.1 1 -0.2
v 0.2 1 -0.2
v 0.4 1 -0.2
v -0.4 1 -0.3
v -0.2 1 -0.3
v -0.1 1 -0.3
v 0.1 1 -0.3
v 0.4 1 -0.3
v -0.4 1 -0.4
v -0.2 1 -0.4
v -0.1 1 -0.4
v 0.1 1 -0.4
v 0.3 1 -0.4
v 0.5 1 -0.4
v -0.5 1 -0.5
v 0.3 1 -0.5
v 0.5 1 -0.5

# faces
f 4/1/1 2/1/1 1/1/1
f 5/1/1 2/1/1 4/1/1
f 6/4/1 3/4/1 2/4/1
f 6/1/1 2/1/1 5/1/1
f 7/4/1 3/4/1 6/4/1
f 8/1/1 4/1/1 1/1/1
f 9/3/1 5/3/1 4/3/1
f 9/1/1 4/1/1 8/1/1
f 10/3/1 5/3/1 9/3/1
f 11/1/1 6/1/1 5/1/1
f 11/3/1 5/3/1 10/3/1
f 11/1/1 7/1/1 6/1/1
f 12/1/1 8/1/1 1/1/1
f 13/1/1 8/1/1 12/1/1
f 14/2/1 10/2/1 9/2/1
f 14/1/1 8/1/1 13/1/1
f 14/2/1 9/2/1 8/2/1
f 15/1/1 11/1/1 10/1/1
f 15/2/1 10/2/1 14/2/1
f 16/1/1 7/1/1 11/1/1
f 16/1/1 11/1/1 15/1/1
f 17/1/1 7/1/1 16/1/1
f 18/3/1 13/3/1 12/3/1
f 19/1/1 14/1/1 13/1/1
f 19/3/1 13/3/1 18/3/1
f 20/4/1 15/4/1 14/4/1
f 21/1/1 16/1/1 15/1/1
f 21/4/1 15/4/1 20/4/1
f 22/2/1 17/2/1 16/2/1
f 22/1/1 16/1/1 21/1/1
f 23/1/1 7/1/1 17/1/1
f 23/2/1 17/2/1 22/2/1
f 24/1/1 14/1/1 19/1/1
f 24/4/1 20/4/1 14/4/1
f 24/1/1 19/1/1 18/1/1
f 25/1/1 22/1/1 21/1/1
f 25/4/1 20/4/1 24/4/1
f 25/1/1 23/1/1 22/1/1
f 25/1/1 21/1/1 20/1/1
f 26/1/1 23/1/1 25/1/1
f 27/1/1 23/1/1 26/1/1
f 28/1/1 25/1/1 24/1/1
f 28/1/1 26/1/1 25/1/1
f 29/2/1 27/2/1 26/2/1
f 29/1/1 26/1/1 28/1/1
f 30/2/1 27/2/1 29/2/1
f 31/1/1 23/1/1 27/1/1
f 31/2/1 27/2/1 30/2/1
f 32/1/1 7/1/1 23/1/1
f 32/1/1 23/1/1 31/1/1
f 33/1/1 24/1/1 18/1/1
f 33/1/1 28/1/1 24/1/1
f 34/3/1 30/3/1 29/3/1
f 34/1/1 28/1/1 33/1/1
f 34/3/1 29/3/1 28/3/1
f 35/1/1 31/1/1 30/1/1
f 35/3/1 30/3/1 34/3/1
f 36/3/1 32/3/1 31/3/1
f 36/1/1 31/1/1 35/1/1
f 37/1/1 7/1/1 32/1/1
f 37/3/1 32/3/1 36/3/1
f 38/2/1 34/2/1 33/2/1
f 38/1/1 33/1/1 18/1/1
f 39/1/1 36/1/1 35/1/1
f 39/2/1 34/2/1 38/2/1
f 39/1/1 37/1/1 36/1/1
f 39/1/1 35/1/1 34/1/1
f 40/1/1 37/1/1 39/1/1
f 41/1/1 37/1/1 40/1/1
f 42/1/1 37/1/1 41/1/1
f 43/1/1 7/1/1 37/1/1
f 43/1/1 37/1/1 42/1/1
f 44/1/1 39/1/1 38/1/1
f 44/1/1 40/1/1 39/1/1
f 44/3/1 41/3/1 40/3/1
f 45/3/1 41/3/1 44/3/1
f 46/1/1 42/1/1 41/1/1
f 46/3/1 41/3/1 45/3/1
f 47/2/1 43/2/1 42/2/1
f 47/1/1 42/1/1 46/1/1
f 48/1/1 7/1/1 43/1/1
f 48/2/1 43/2/1 47/2/1
f 49/1/1 38/1/1 18/1/1
f 49/1/1 44/1/1 38/1/1
f 50/4/1 45/4/1 44/4/1
f 50/1/1 44/1/1 49/1/1
f 51/1/1 47/1/1 46/1/1
f 51/4/1 45/4/1 50/4/1
f 51/1/1 46/1/1 45/1/1
f 51/1/1 48/1/1 47/1/1
f 52/1/1 7/1/1 48/1/1
f 52/1/1 48/1/1 51/1/1
f 53/1/2 54/1/2 55/1/2
f 55/1/2 54/1/2 56/1/2
f 56/1/2 54/1/2 57/1/2
f 57/1/2 54/1/2 58/1/2
f 58/1/2 54/1/2 59/1/2
f 59/1/2 54/1/2 60/1/2
f 55/2/2 56/2/2 61/2/2
f 56/1/2 57/1/2 62/1/2
f 61/2/2 56/2/2 62/2/2
f 62/1/2 57/1/2 63/1/2
f 57/3/2 58/3/2 64/3/2
f 63/1/2 57/1/2 64/1/2
f 58/1/2 59/1/2 65/1/2
f 64/3/2 58/3/2 65/3/2
f 59/3/2 60/3/2 66/3/2
f 65/1/2 59/1/2 66/1/2
f 60/1/2 54/1/2 67/1/2
f 66/3/2 60/3/2 67/3/2
f 67/1/2 54/1/2 68/1/2
f 62/2/2 63/2/2 69/2/2
f 61/1/2 62/1/2 69/1/2
f 65/1/2 66/1/2 70/1/2
f 69/2/2 63/2/2 70/2/2
f 63/1/2 64/1/2 70/1/2
f 64/1/2 65/1/2 70/1/2
f 66/2/2 67/2/2 71/2/2
f 70/1/2 66/1/2 71/1/2
f 67/2/2 68/2/2 71/2/2
f 68/1/2 54/1/2 72/1/2
f 71/2/2 68/2/2 72/2/2
f 72/1/2 54/1/2 73/1/2
f 70/1/2 71/1/2 74/1/2
f 69/1/2 70/1/2 74/1/2
f 71/1/2 72/1/2 74/1/2
f 74/1/2 72/1/2 75/1/2
f 75/1/2 72/1/2 76/1/2
f 72/4/2 73/4/2 77/4/2
f 76/1/2 72/1/2 77/1/2
f 77/4/2 73/4/2 78/4/2
f 69/1/2 74/1/2 79/1/2
f 74/3/2 75/3/2 80/3/2
f 79/1/2 74/1/2 80/1/2
f 80/3/2 75/3/2 81/3/2
f 81/3/2 75/3/2 82/3/2
f 75/1/2 76/1/2 83/1/2
f 82/3/2 75/3/2 83/3/2
f 76/4/2 77/4/2 84/4/2
f 83/1/2 76/1/2 84/1/2
f 77/1/2 78/1/2 85/1/2
f 84/4/2 77/4/2 85/4/2
f 61/1/2 69/1/2 86/1/2
f 69/1/2 79/1/2 86/1/2
f 79/2/2 80/2/2 87/2/2
f 86/1/2 79/1/2 87/1/2
f 80/2/2 81/2/2 87/2/2
f 87/2/2 81/2/2 88/2/2
f 81/1/2 82/1/2 89/1/2
f 88/2/2 81/2/2 89/2/2
f 82/2/2 83/2/2 90/2/2
f 89/1/2 82/1/2 90/1/2
f 83/2/2 84/2/2 90/2/2
f 84/1/2 85/1/2 91/1/2
f 90/2/2 84/2/2 91/2/2
f 87/4/2 88/4/2 92/4/2
f 86/4/2 87/4/2 92/4/2
f 92/4/2 88/4/2 93/4/2
f 89/1/2 90/1/2 94/1/2
f 93/4/2 88/4/2 94/4/2
f 88/1/2 89/1/2 94/1/2
f 90/1/2 91/1/2 94/1/2
f 94/1/2 91/1/2 95/1/2
f 95/1/2 91/1/2 96/1/2
f 85/1/2 78/1/2 97/1/2
f 96/1/2 91/1/2 97/1/2
f 91/1/2 85/1/2 97/1/2
f 92/1/2 93/1/2 98/1/2
f 98/1/2 93/1/2 99/1/2
f 94/2/2 95/2/2 100/2/2
f 99/1/2 93/1/2 100/1/2
f 93/2/2 94/2/2 100/2/2
f 95/1/2 96/1/2 101/1/2
f 100/2/2 95/2/2 101/2/2
f 101/1/2 96/1/2 102/1/2
f 96/3/2 97/3/2 103/3/2
f 102/1/2 96/1/2 103/1/2
f 103/3/2 97/3/2 104/3/2
f 97/1/2 78/1/2 105/1/2
f 104/3/2 97/3/2 105/3/2
f 98/2/2 99/2/2 106/2/2
f 99/1/2 100/1/2 107/1/2
f 106/2/2 99/2/2 107/2/2
f 101/1/2 102/1/2 107/1/2
f 100/1/2 101/1/2 107/1/2
f 103/4/2 104/4/2 108/4/2
f 107/1/2 102/1/2 108/1/2
f 102/4/2 103/4/2 108/4/2
f 104/1/2 105/1/2 109/1/2
f 108/4/2 104/4/2 109/4/2
f 105/1/2 78/1/2 110/1/2
f 109/1/2 105/1/2 110/1/2
f 110/1/2 78/1/2 111/1/2
f 108/1/2 109/1/2 112/1/2
f 106/1/2 107/1/2 112/1/2
f 107/1/2 108/1/2 112/1/2
f 109/1/2 110/1/2 112/1/2
f 110/4/2 111/4/2 113/4/2
f 112/1/2 110/1/2 113/1/2
f 113/4/2 111/4/2 114/4/2
f 119/3/3 117/3/3 116/3/3
f 119/1/3 118/1/3 117/1/3
f 120/1/3 118/1/3 119/1/3
f 121/1/3 118/1/3 120/1/3
f 122/1/3 118/1/3 121/1/3
f 123/1/3 116/1/3 115/1/3
f 124/3/3 119/3/3 116/3/3
f 124/1/3 116/1/3 123/1/3
f 125/2/3 124/2/3 123/2/3
f 125/3/3 119/3/3 124/3/3
f 126/4/3 120/4/3 119/4/3
f 126/3/3 119/3/3 125/3/3
f 127/1/3 121/1/3 120/1/3
f 127/4/3 120/4/3 126/4/3
f 128/1/3 121/1/3 127/1/3
f 129/2/3 122/2/3 121/2/3
f 129/1/3 121/1/3 128/1/3
f 130/1/3 123/1/3 115/1/3
f 131/2/3 125/2/3 123/2/3
f 131/1/3 123/1/3 130/1/3
f 132/2/3 122/2/3 129/2/3
f 132/3/3 129/3/3 128/3/3
f 133/1/3 118/1/3 122/1/3
f 133/2/3 122/2/3 132/2/3
f 134/2/3 125/2/3 131/2/3
f 134/4/3 131/4/3 130/4/3
f 135/1/3 126/1/3 125/1/3
f 135/2/3 125/2/3 134/2/3
f 135/1/3 128/1/3 127/1/3
f 135/1/3 127/1/3 126/1/3
f 136/1/3 128/1/3 135/1/3
f 137/3/3 132/3/3 128/3/3
f 137/1/3 128/1/3 136/1/3
f 138/1/3 133/1/3 132/1/3
f 138/3/3 132/3/3 137/3/3
f 139/1/3 130/1/3 115/1/3
f 139/4/3 134/4/3 130/4/3
f 140/1/3 136/1/3 135/1/3
f 140/4/3 134/4/3 139/4/3
f 140/1/3 135/1/3 134/1/3
f 141/1/3 139/1/3 115/1/3
f 141/1/3 140/1/3 139/1/3
f 142/1/3 136/1/3 140/1/3
f 142/1/3 140/1/3 141/1/3
f 143/1/3 136/1/3 142/1/3
f 144/2/3 137/2/3 136/2/3
f 144/1/3 136/1/3 143/1/3
f 145/1/3 118/1/3 133/1/3
f 145/1/3 133/1/3 138/1/3
f 145/1/3 138/1/3 137/1/3
f 146/1/3 118/1/3 145/1/3
f 147/2/3 137/2/3 144/2/3
f 147/3/3 144/3/3 143/3/3
f 148/1/3 145/1/3 137/1/3
f 148/2/3 137/2/3 147/2/3
f 149/1/3 145/1/3 148/1/3
f 150/1/3 143/1/3 142/1/3
f 150/3/3 147/3/3 143/3/3
f 151/1/3 148/1/3 147/1/3
f 151/3/3 147/3/3 150/3/3
f 152/1/3 141/1/3 115/1/3
f 153/2/3 142/2/3 141/2/3
f 153/1/3 141/1/3 152/1/3
f 154/1/3 150/1/3 142/1/3
f 154/2/3 142/2/3 153/2/3
f 154/1/3 151/1/3 150/1/3
f 155/1/3 148/1/3 151/1/3
f 155/1/3 151/1/3 154/1/3
f 155/4/3 149/4/3 148/4/3
f 156/1/3 145/1/3 149/1/3
f 156/4/3 149/4/3 155/4/3
f 157/2/3 146/2/3 145/2/3
f 157/1/3 145/1/3 156/1/3
f 158/1/3 118/1/3 146/1/3
f 158/2/3 146/2/3 157/2/3
f 159/1/3 118/1/3 158/1/3
f 160/4/4 161/4/4 163/4/4
f 161/1/4 162/1/4 164/1/4
f 163/4/4 161/4/4 164/4/4
f 164/1/4 162/1/4 165/1/4
f 165/1/4 162/1/4 166/1/4
f 166/1/4 162/1/4 167/1/4
f 167/1/4 162/1/4 168/1/4
f 163/1/4 164/1/4 169/1/4
f 164/1/4 165/1/4 169/1/4
f 169/1/4 165/1/4 170/1/4
f 166/1/4 167/1/4 171/1/4
f 171/1/4 167/1/4 172/1/4
f 172/1/4 167/1/4 173/1/4
f 167/2/4 168/2/4 174/2/4
f 173/1/4 167/1/4 174/1/4
f 165/2/4 166/2/4 175/2/4
f 170/1/4 165/1/4 175/1/4
f 166/1/4 171/1/4 176/1/4
f 175/2/4 166/2/4 176/2/4
f 172/1/4 173/1/4 177/1/4
f 173/4/4 174/4/4 177/4/4
f 174/2/4 168/2/4 178/2/4
f 177/4/4 174/4/4 178/4/4
f 168/1/4 162/1/4 179/1/4
f 178/2/4 168/2/4 179/2/4
f 163/1/4 169/1/4 180/1/4
f 169/2/4 170/2/4 180/2/4
f 175/1/4 176/1/4 181/1/4
f 180/2/4 170/2/4 181/2/4
f 170/1/4 175/1/4 181/1/4
f 181/1/4 176/1/4 182/1/4
f 176/1/4 171/1/4 183/1/4
f 182/1/4 176/1/4 183/1/4
f 171/2/4 172/2/4 184/2/4
f 183/1/4 171/1/4 184/1/4
f 177/1/4 178/1/4 185/1/4
f 184/2/4 172/2/4 185/2/4
f 172/1/4 177/1/4 185/1/4
f 185/1/4 178/1/4 186/1/4
f 178/4/4 179/4/4 187/4/4
f 186/1/4 178/1/4 187/1/4
f 179/1/4 162/1/4 188/1/4
f 187/4/4 179/4/4 188/4/4
f 183/3/4 184/3/4 189/3/4
f 184/2/4 185/2/4 189/2/4
f 185/4/4 186/4/4 190/4/4
f 189/2/4 185/2/4 190/2/4
f 180/1/4 181/1/4 191/1/4
f 163/1/4 180/1/4 191/1/4
f 191/1/4 181/1/4 192/1/4
f 181/4/4 182/4/4 193/4/4
f 192/1/4 181/1/4 193/1/4
f 182/1/4 183/1/4 194/1/4
f 193/4/4 182/4/4 194/4/4
f 190/4/4 186/4/4 195/4/4
f 189/1/4 190/1/4 195/1/4
f 186/1/4 187/1/4 196/1/4
f 195/4/4 186/4/4 196/4/4
f 187/1/4 188/1/4 196/1/4
f 196/1/4 188/1/4 197/1/4
f 191/3/4 192/3/4 198/3/4
f 193/1/4 194/1/4 199/1/4
f 198/3/4 192/3/4 199/3/4
f 192/1/4 193/1/4 199/1/4
f 199/1/4 194/1/4 200/1/4
f 194/1/4 183/1/4 201/1/4
f 200/1/4 194/1/4 201/1/4
f 183/3/4 189/3/4 202/3/4
f 201/1/4 183/1/4 202/1/4
f 189/1/4 195/1/4 203/1/4
f 202/3/4 189/3/4 203/3/4
f 195/1/4 196/1/4 203/1/4
f 203/1/4 196/1/4 204/1/4
f 196/3/4 197/3/4 205/3/4
f 204/1/4 196/1/4 205/1/4
f 204/2/4 205/2/4 206/2/4
f 205/3/4 197/3/4 206/3/4
f 197/1/4 188/1/4 207/1/4
f 206/3/4 197/3/4 207/3/4
f 188/1/4 162/1/4 208/1/4
f 207/1/4 188/1/4 208/1/4
f 208/1/4 162/1/4 209/1/4
f 199/1/4 200/1/4 210/1/4
f 200/2/4 201/2/4 210/2/4
f 198/1/4 199/1/4 210/1/4
f 201/1/4 202/1/4 211/1/4
f 210/2/4 201/2/4 211/2/4
f 203/1/4 204/1/4 211/1/4
f 202/1/4 203/1/4 211/1/4
f 211/1/4 204/1/4 212/1/4
f 204/2/4 206/2/4 213/2/4
f 212/1/4 204/1/4 213/1/4
f 206/1/4 207/1/4 214/1/4
f 213/2/4 206/2/4 214/2/4
f 207/1/4 208/1/4 214/1/4
f 198/1/4 210/1/4 215/1/4
f 210/1/4 211/1/4 215/1/4
f 211/4/4 212/4/4 216/4/4
f 215/1/4 211/1/4 216/1/4
f 212/1/4 213/1/4 217/1/4
f 216/4/4 212/4/4 217/4/4
f 213/1/4 214/1/4 217/1/4
f 214/1/4 208/1/4 218/1/4
f 217/1/4 214/1/4 218/1/4
f 208/4/4 209/4/4 218/4/4
f 218/4/4 209/4/4 219/4/4
f 222/1/5 221/1/5 220/1/5
f 223/1/5 221/1/5 222/1/5
f 224/1/5 221/1/5 223/1/5
f 225/1/5 221/1/5 224/1/5
f 226/1/5 222/1/5 220/1/5
f 227/4/5 223/4/5 222/4/5
f 227/1/5 222/1/5 226/1/5
f 228/4/5 223/4/5 227/4/5
f 229/1/5 221/1/5 225/1/5
f 229/2/5 225/2/5 224/2/5
f 230/1/5 221/1/5 229/1/5
f 231/4/5 223/4/5 228/4/5
f 231/1/5 228/1/5 227/1/5
f 232/1/5 224/1/5 223/1/5
f 232/4/5 223/4/5 231/4/5
f 233/1/5 224/1/5 232/1/5
f 234/2/5 229/2/5 224/2/5
f 234/1/5 224/1/5 233/1/5
f 235/3/5 230/3/5 229/3/5
f 235/2/5 229/2/5 234/2/5
f 236/1/5 226/1/5 220/1/5
f 236/2/5 227/2/5 226/2/5
f 237/1/5 231/1/5 227/1/5
f 237/2/5 227/2/5 236/2/5
f 237/1/5 232/1/5 231/1/5
f 238/1/5 232/1/5 237/1/5
f 239/1/5 234/1/5 233/1/5
f 239/1/5 235/1/5 234/1/5
f 239/3/5 233/3/5 232/3/5
f 240/1/5 235/1/5 239/1/5
f 241/3/5 230/3/5 235/3/5
f 241/1/5 235/1/5 240/1/5
f 242/1/5 221/1/5 230/1/5
f 242/3/5 230/3/5 241/3/5
f 243/1/5 232/1/5 238/1/5
f 243/3/5 239/3/5 232/3/5
f 244/2/5 240/2/5 239/2/5
f 244/3/5 239/3/5 243/3/5
f 245/4/5 241/4/5 240/4/5
f 245/2/5 240/2/5 244/2/5
f 246/1/5 242/1/5 241/1/5
f 246/4/5 241/4/5 245/4/5
f 247/1/5 221/1/5 242/1/5
f 247/1/5 242/1/5 246/1/5
f 248/1/5 221/1/5 247/1/5
f 249/1/5 236/1/5 220/1/5
f 249/1/5 237/1/5 236/1/5
f 250/1/5 237/1/5 249/1/5
f 251/3/5 238/3/5 237/3/5
f 251/1/5 237/1/5 250/1/5
f 252/1/5 244/1/5 243/1/5
f 252/3/5 238/3/5 251/3/5
f 252/1/5 243/1/5 238/1/5
f 253/1/5 244/1/5 252/1/5
f 254/2/5 245/2/5 244/2/5
f 254/1/5 244/1/5 253/1/5
f 255/1/5 246/1/5 245/1/5
f 255/2/5 245/2/5 254/2/5
f 255/1/5 247/1/5 246/1/5
f 256/1/5 251/1/5 250/1/5
f 256/4/5 250/4/5 249/4/5
f 256/1/5 252/1/5 251/1/5
f 257/1/5 252/1/5 256/1/5
f 258/1/5 247/1/5 255/1/5
f 258/1/5 254/1/5 253/1/5
f 258/1/5 255/1/5 254/1/5
f 259/1/5 247/1/5 258/1/5
f 260/2/5 248/2/5 247/2/5
f 260/1/5 247/1/5 259/1/5
f 261/1/5 221/1/5 248/1/5
f 261/2/5 248/2/5 260/2/5
f 262/2/5 257/2/5 256/2/5
f 262/4/5 256/4/5 249/4/5
f 263/1/5 252/1/5 257/1/5
f 263/2/5 257/2/5 262/2/5
f 264/2/5 253/2/5 252/2/5
f 264/1/5 252/1/5 263/1/5
f 265/1/5 258/1/5 253/1/5
f 265/2/5 253/2/5 264/2/5
f 266/4/5 262/4/5 249/4/5
f 267/1/5 263/1/5 262/1/5
f 267/4/5 262/4/5 266/4/5
f 267/1/5 264/1/5 263/1/5
f 267/1/5 265/1/5 264/1/5
f 268/1/5 258/1/5 265/1/5
f 268/1/5 265/1/5 267/1/5
f 268/3/5 259/3/5 258/3/5
f 269/1/5 260/1/5 259/1/5
f 269/3/5 259/3/5 268/3/5
f 269/1/5 261/1/5 260/1/5
f 270/1/5 221/1/5 261/1/5
f 270/1/5 261/1/5 269/1/5
f 271/1/6 272/1/6 273/1/6
f 273/1/6 272/1/6 274/1/6
f 274/1/6 272/1/6 275/1/6
f 275/1/6 272/1/6 276/1/6
f 271/1/6 273/1/6 277/1/6
f 273/2/6 274/2/6 278/2/6
f 277/1/6 273/1/6 278/1/6
f 278/2/6 274/2/6 279/2/6
f 274/1/6 275/1/6 280/1/6
f 279/2/6 274/2/6 280/2/6
f 280/1/6 275/1/6 281/1/6
f 275/4/6 276/4/6 282/4/6
f 281/1/6 275/1/6 282/1/6
f 276/1/6 272/1/6 283/1/6
f 282/4/6 276/4/6 283/4/6
f 271/1/6 277/1/6 284/1/6
f 278/3/6 279/3/6 284/3/6
f 277/3/6 278/3/6 284/3/6
f 280/1/6 281/1/6 285/1/6
f 284/3/6 279/3/6 285/3/6
f 279/1/6 280/1/6 285/1/6
f 281/3/6 282/3/6 286/3/6
f 285/1/6 281/1/6 286/1/6
f 282/1/6 283/1/6 287/1/6
f 286/3/6 282/3/6 287/3/6
f 287/1/6 283/1/6 288/1/6
f 284/1/6 285/1/6 289/1/6
f 285/1/6 286/1/6 289/1/6
f 271/1/6 284/1/6 289/1/6
f 289/1/6 286/1/6 290/1/6
f 287/2/6 288/2/6 291/2/6
f 290/1/6 286/1/6 291/1/6
f 286/2/6 287/2/6 291/2/6
f 291/2/6 288/2/6 292/2/6
f 288/1/6 283/1/6 293/1/6
f 292/2/6 288/2/6 293/2/6
f 289/4/6 290/4/6 294/4/6
f 294/4/6 290/4/6 295/4/6
f 290/1/6 291/1/6 296/1/6
f 295/4/6 290/4/6 296/4/6
f 296/1/6 291/1/6 297/1/6
f 291/4/6 292/4/6 298/4/6
f 297/1/6 291/1/6 298/1/6
f 292/1/6 293/1/6 299/1/6
f 298/4/6 292/4/6 299/4/6
f 296/2/6 297/2/6 300/2/6
f 294/1/6 295/1/6 300/1/6
f 295/2/6 296/2/6 300/2/6
f 298/1/6 299/1/6 301/1/6
f 300/2/6 297/2/6 301/2/6
f 297/1/6 298/1/6 301/1/6
f 301/1/6 299/1/6 302/1/6
f 299/1/6 293/1/6 303/1/6
f 302/1/6 299/1/6 303/1/6
f 303/1/6 293/1/6 304/1/6
f 283/1/6 272/1/6 305/1/6
f 304/1/6 293/1/6 305/1/6
f 293/1/6 283/1/6 305/1/6
f 301/1/6 302/1/6 306/1/6
f 302/3/6 303/3/6 306/3/6
f 300/1/6 301/1/6 306/1/6
f 303/1/6 304/1/6 307/1/6
f 306/3/6 303/3/6 307/3/6
f 304/4/6 305/4/6 308/4/6
f 307/1/6 304/1/6 308/1/6
f 305/1/6 272/1/6 309/1/6
f 308/4/6 305/4/6 309/4/6
f 300/1/6 306/1/6 310/1/6
f 306/1/6 307/1/6 310/1/6
f 294/1/6 300/1/6 310/1/6
f 310/1/6 307/1/6 311/1/6
f 311/1/6 307/1/6 312/1/6
f 307/2/6 308/2/6 313/2/6
f 312/1/6 307/1/6 313/1/6
f 308/2/6 309/2/6 313/2/6
f 309/1/6 272/1/6 314/1/6
f 313/2/6 309/2/6 314/2/6
f 310/3/6 311/3/6 315/3/6
f 294/1/6 310/1/6 315/1/6
f 311/1/6 312/1/6 316/1/6
f 315/3/6 311/3/6 316/3/6
f 312/4/6 313/4/6 317/4/6
f 316/1/6 312/1/6 317/1/6
f 313/1/6 314/1/6 318/1/6
f 317/4/6 313/4/6 318/4/6
f 318/1/6 314/1/6 319/1/6
f 314/1/6 272/1/6 320/1/6
f 319/1/6 314/1/6 320/1/6
f 294/1/6 315/1/6 321/1/6
f 315/1/6 316/1/6 321/1/6
f 318/1/6 319/1/6 321/1/6
f 317/1/6 318/1/6 321/1/6
f 316/1/6 317/1/6 321/1/6
f 319/4/6 320/4/6 322/4/6
f 321/1/6 319/1/6 322/1/6
f 322/4/6 320/4/6 323/4/6
